<svg xmlns="http://www.w3.org/2000/svg" style="display:none">
  <!-- Local icon sprite (Feather-style, stroke-based, themed via currentColor). No CDN. -->
  <symbol id="home" viewBox="0 0 24 24" fill="none" stroke="currentColor" stroke-width="2" stroke-linecap="round" stroke-linejoin="round">
    <path d="M3 9l9-7 9 7v11a2 2 0 0 1-2 2H5a2 2 0 0 1-2-2z"/>
    <polyline points="9 22 9 12 15 12 15 22"/>
  </symbol>
  <symbol id="chart" viewBox="0 0 24 24" fill="none" stroke="currentColor" stroke-width="2" stroke-linecap="round" stroke-linejoin="round">
    <line x1="18" y1="20" x2="18" y2="10"/>
    <line x1="12" y1="20" x2="12" y2="4"/>
    <line x1="6" y1="20" x2="6" y2="14"/>
  </symbol>
  <symbol id="bird" viewBox="0 0 24 24" fill="none" stroke="currentColor" stroke-width="2" stroke-linecap="round" stroke-linejoin="round">
    <path d="M20.24 12.24a6 6 0 0 0-8.49-8.49L5 10.5V19h8.5z"/>
    <line x1="16" y1="8" x2="2" y2="22"/>
    <line x1="17.5" y1="15" x2="9" y2="15"/>
  </symbol>
  <symbol id="zap" viewBox="0 0 24 24" fill="none" stroke="currentColor" stroke-width="2" stroke-linecap="round" stroke-linejoin="round">
    <polygon points="13 2 3 14 12 14 11 22 21 10 12 10 13 2"/>
  </symbol>
  <symbol id="music" viewBox="0 0 24 24" fill="none" stroke="currentColor" stroke-width="2" stroke-linecap="round" stroke-linejoin="round">
    <path d="M9 18V5l12-2v13"/>
    <circle cx="6" cy="18" r="3"/>
    <circle cx="18" cy="16" r="3"/>
  </symbol>
  <symbol id="activity" viewBox="0 0 24 24" fill="none" stroke="currentColor" stroke-width="2" stroke-linecap="round" stroke-linejoin="round">
    <polyline points="22 12 18 12 15 21 9 3 6 12 2 12"/>
  </symbol>
  <symbol id="file-text" viewBox="0 0 24 24" fill="none" stroke="currentColor" stroke-width="2" stroke-linecap="round" stroke-linejoin="round">
    <path d="M14 2H6a2 2 0 0 0-2 2v16a2 2 0 0 0 2 2h12a2 2 0 0 0 2-2V8z"/>
    <polyline points="14 2 14 8 20 8"/>
    <line x1="16" y1="13" x2="8" y2="13"/>
    <line x1="16" y1="17" x2="8" y2="17"/>
  </symbol>
  <symbol id="sliders" viewBox="0 0 24 24" fill="none" stroke="currentColor" stroke-width="2" stroke-linecap="round" stroke-linejoin="round">
    <line x1="4" y1="21" x2="4" y2="14"/>
    <line x1="4" y1="10" x2="4" y2="3"/>
    <line x1="12" y1="21" x2="12" y2="12"/>
    <line x1="12" y1="8" x2="12" y2="3"/>
    <line x1="20" y1="21" x2="20" y2="16"/>
    <line x1="20" y1="12" x2="20" y2="3"/>
    <line x1="1" y1="14" x2="7" y2="14"/>
    <line x1="9" y1="8" x2="15" y2="8"/>
    <line x1="17" y1="16" x2="23" y2="16"/>
  </symbol>
  <symbol id="grid" viewBox="0 0 24 24" fill="none" stroke="currentColor" stroke-width="2" stroke-linecap="round" stroke-linejoin="round">
    <rect x="3" y="3" width="7" height="7"/>
    <rect x="14" y="3" width="7" height="7"/>
    <rect x="14" y="14" width="7" height="7"/>
    <rect x="3" y="14" width="7" height="7"/>
  </symbol>
  <symbol id="clock" viewBox="0 0 24 24" fill="none" stroke="currentColor" stroke-width="2" stroke-linecap="round" stroke-linejoin="round">
    <circle cx="12" cy="12" r="10"/>
    <polyline points="12 6 12 12 16 14"/>
  </symbol>
  <symbol id="send" viewBox="0 0 24 24" fill="none" stroke="currentColor" stroke-width="2" stroke-linecap="round" stroke-linejoin="round">
    <line x1="22" y1="2" x2="11" y2="13"/>
    <polygon points="22 2 15 22 11 13 2 9 22 2"/>
  </symbol>
  <symbol id="cloud" viewBox="0 0 24 24" fill="none" stroke="currentColor" stroke-width="2" stroke-linecap="round" stroke-linejoin="round">
    <path d="M18 10h-1.26A8 8 0 1 0 9 20h9a5 5 0 0 0 0-10z"/>
  </symbol>
  <symbol id="search" viewBox="0 0 24 24" fill="none" stroke="currentColor" stroke-width="2" stroke-linecap="round" stroke-linejoin="round">
    <circle cx="11" cy="11" r="8"/>
    <line x1="21" y1="21" x2="16.65" y2="16.65"/>
  </symbol>
  <symbol id="trending-up" viewBox="0 0 24 24" fill="none" stroke="currentColor" stroke-width="2" stroke-linecap="round" stroke-linejoin="round">
    <polyline points="23 6 13.5 15.5 8.5 10.5 1 18"/>
    <polyline points="17 6 23 6 23 12"/>
  </symbol>
  <symbol id="menu" viewBox="0 0 24 24" fill="none" stroke="currentColor" stroke-width="2" stroke-linecap="round" stroke-linejoin="round">
    <line x1="3" y1="12" x2="21" y2="12"/>
    <line x1="3" y1="6" x2="21" y2="6"/>
    <line x1="3" y1="18" x2="21" y2="18"/>
  </symbol>
  <symbol id="sun" viewBox="0 0 24 24" fill="none" stroke="currentColor" stroke-width="2" stroke-linecap="round" stroke-linejoin="round">
    <circle cx="12" cy="12" r="5"/>
    <line x1="12" y1="1" x2="12" y2="3"/>
    <line x1="12" y1="21" x2="12" y2="23"/>
    <line x1="4.22" y1="4.22" x2="5.64" y2="5.64"/>
    <line x1="18.36" y1="18.36" x2="19.78" y2="19.78"/>
    <line x1="1" y1="12" x2="3" y2="12"/>
    <line x1="21" y1="12" x2="23" y2="12"/>
    <line x1="4.22" y1="19.78" x2="5.64" y2="18.36"/>
    <line x1="18.36" y1="5.64" x2="19.78" y2="4.22"/>
  </symbol>
  <symbol id="moon" viewBox="0 0 24 24" fill="none" stroke="currentColor" stroke-width="2" stroke-linecap="round" stroke-linejoin="round">
    <path d="M21 12.79A9 9 0 1 1 11.21 3 7 7 0 0 0 21 12.79z"/>
  </symbol>
  <symbol id="award" viewBox="0 0 24 24" fill="none" stroke="currentColor" stroke-width="2" stroke-linecap="round" stroke-linejoin="round">
    <circle cx="12" cy="8" r="7"/>
    <polyline points="8.21 13.89 7 23 12 20 17 23 15.79 13.88"/>
  </symbol>
  <symbol id="mic" viewBox="0 0 24 24" fill="none" stroke="currentColor" stroke-width="2" stroke-linecap="round" stroke-linejoin="round">
    <path d="M12 1a3 3 0 0 0-3 3v8a3 3 0 0 0 6 0V4a3 3 0 0 0-3-3z"/>
    <path d="M19 10v2a7 7 0 0 1-14 0v-2"/>
    <line x1="12" y1="19" x2="12" y2="23"/>
    <line x1="8" y1="23" x2="16" y2="23"/>
  </symbol>
</svg>
